<svg width="96" height="96" viewBox="0 0 96 96" fill="none" xmlns="http://www.w3.org/2000/svg" role="img" aria-labelledby="title desc">
  <title id="title">JM Studios logo</title>
  <desc id="desc">A navy JM monogram inside a formal rounded square mark.</desc>
  <rect x="6" y="6" width="84" height="84" rx="18" fill="#12335F"/>
  <path d="M29 27H42V57C42 65.2 36.7 70 28.9 70C25.1 70 21.8 69 19 67.1L22.8 56.9C24.2 57.9 25.7 58.4 27.3 58.4C28.4 58.4 29 57.7 29 56.5V27Z" fill="white"/>
  <path d="M46 27H58.2L66.1 43.4L74 27H86V69H74.3V48.2L68.2 60.5H63.7L57.6 48.2V69H46V27Z" fill="white"/>
  <path d="M20 20H76" stroke="#DCEEF1" stroke-width="3" stroke-linecap="round" opacity="0.7"/>
  <path d="M20 76H76" stroke="#DCEEF1" stroke-width="3" stroke-linecap="round" opacity="0.7"/>
</svg>
